<?xml version="1.0" standalone="no"?>
<!DOCTYPE svg PUBLIC "-//W3C//DTD SVG 20010904//EN"
 "http://www.w3.org/TR/2001/REC-SVG-20010904/DTD/svg10.dtd">
<svg version="1.0" xmlns="http://www.w3.org/2000/svg"
 width="700.000000pt" height="700.000000pt" viewBox="0 0 700.000000 700.000000"
 preserveAspectRatio="xMidYMid meet">
<metadata>
Created by potrace 1.11, written by Peter Selinger 2001-2013
</metadata>
<g transform="translate(0.000000,700.000000) scale(0.100000,-0.100000)"
fill="#000000" stroke="none">
<path d="M0 3500 l0 -3500 3500 0 3500 0 0 2291 0 2292 -32 -7 c-52 -10 -117
-54 -153 -104 -43 -60 -136 -295 -654 -1662 l-420 -1105 -43 -3 -43 -3 -354
923 c-194 508 -356 926 -360 930 -3 4 -141 -311 -305 -700 -165 -389 -342
-807 -394 -930 l-95 -223 -40 3 -41 3 -251 625 c-139 344 -364 902 -500 1240
-254 632 -366 884 -413 933 -34 37 -89 65 -141 73 -40 6 -41 8 -41 45 l0 39
631 0 630 0 -3 -37 -3 -38 -70 -8 c-126 -14 -181 -60 -179 -151 2 -79 50 -208
374 -1009 195 -483 297 -723 302 -713 4 8 107 254 229 547 l220 532 -82 211
c-186 482 -252 570 -439 585 l-75 6 -3 38 -3 37 706 0 706 0 -3 -37 -3 -38
-85 -6 c-105 -7 -149 -21 -184 -58 -43 -45 -44 -91 -6 -207 18 -55 156 -421
307 -814 150 -393 276 -722 279 -730 6 -17 521 1326 561 1463 19 68 24 104 22
160 -7 119 -53 161 -201 181 l-78 10 0 38 0 38 365 0 365 0 0 1170 0 1170
-3500 0 -3500 0 0 -3500z m1500 1220 c123 -15 213 -42 367 -111 76 -33 158
-65 184 -71 91 -21 136 11 169 121 20 66 24 71 50 71 l27 0 6 -102 c4 -57 10
-269 14 -473 4 -203 8 -374 8 -380 0 -5 -19 -11 -42 -13 -39 -3 -43 -1 -49 25
-58 262 -172 458 -348 599 -152 121 -300 177 -471 178 -171 1 -284 -42 -380
-145 -66 -72 -95 -144 -95 -234 0 -122 53 -217 178 -321 86 -70 156 -111 487
-281 373 -192 509 -279 649 -412 118 -113 207 -274 235 -425 16 -87 14 -265
-5 -349 -22 -102 -100 -258 -171 -342 -155 -184 -356 -298 -603 -341 -72 -12
-132 -15 -250 -11 -179 6 -235 18 -459 104 -184 69 -239 76 -315 39 -53 -26
-93 -67 -117 -120 -10 -22 -19 -26 -56 -26 l-43 0 0 546 0 545 42 -3 41 -3 27
-102 c76 -283 203 -491 394 -641 166 -132 329 -192 521 -192 166 0 281 40 384
136 181 167 181 405 0 599 -84 89 -187 154 -488 310 -410 211 -549 301 -686
447 -89 95 -155 201 -193 313 -25 74 -27 92 -27 245 1 154 2 170 28 245 44
127 102 219 197 315 207 210 476 298 790 260z"/>
</g>
</svg>
