<?xml version="1.0" encoding="utf-8"?>
<!-- Generator: Adobe Illustrator 19.0.0, SVG Export Plug-In . SVG Version: 6.00 Build 0)  -->
<svg version="1.1" id="Layer_1" xmlns="http://www.w3.org/2000/svg" xmlns:xlink="http://www.w3.org/1999/xlink" x="0px" y="0px"
	 viewBox="-559 141 800 800" style="enable-background:new -559 141 800 800;" xml:space="preserve">
<style type="text/css">
	.st0{fill:#141414;}
	.st1{fill:#FDF8F8;}
	.st2{fill:#E65030;}
</style>
<rect x="-633" y="97" class="st0" width="991" height="889"/>
<g id="XMLID_1_">
	<path id="XMLID_6_" class="st1" d="M-295.9,400.7l2.7,110.4h-10c-4.7-27.7-16.3-49.9-34.8-66.8c-18.5-16.9-38.5-25.3-60-25.3
		c-16.6,0-29.7,4.4-39.4,13.3c-9.7,8.9-14.5,19.1-14.5,30.6c0,7.3,1.7,13.8,5.1,19.5c4.7,7.7,12.3,15.2,22.7,22.7
		c7.6,5.4,25.3,14.9,53,28.6c38.7,19,64.9,37,78.4,54c13.3,16.9,20,36.3,20,58.1c0,27.7-10.8,51.5-32.3,71.4
		c-21.6,19.9-49,29.9-82.2,29.9c-10.4,0-20.3-1.1-29.5-3.2c-9.3-2.1-20.9-6.1-34.9-12c-7.8-3.3-14.2-4.9-19.3-4.9
		c-4.2,0-8.7,1.6-13.4,4.9c-4.7,3.3-8.5,8.2-11.5,14.9h-9v-125h9c7.2,35.2,21,62,41.4,80.4c20.4,18.5,42.4,27.7,66,27.7
		c18.2,0,32.8-5,43.6-14.9c10.8-9.9,16.2-21.5,16.2-34.7c0-7.8-2.1-15.4-6.2-22.7s-10.5-14.3-18.9-20.9
		c-8.5-6.6-23.4-15.2-44.9-25.8c-30.1-14.8-51.8-27.4-64.9-37.8c-13.3-10.3-23.5-21.9-30.5-34.8c-7.1-12.9-10.6-27-10.6-42.5
		c0-26.4,9.7-48.8,29.1-67.4s43.8-27.8,73.2-27.8c10.7,0,21.2,1.3,31.3,3.9c7.6,2,17,5.6,28,10.9s18.7,7.9,23.1,7.9
		c4.2,0,7.6-1.3,10-3.9s4.7-8.9,6.8-18.8h7.2V400.7z"/>
	<path id="XMLID_8_" class="st1" d="M242.9,408.2v9c-6.2,0.5-11.4,2.2-15.6,5.1c-4.2,2.9-8,7.4-11.2,13.4c-1,2-6.1,14.6-15.4,37.8
		L96.9,746.8h-9.5l-82-213.4L-85,746.8h-9l-108.9-270.2c-11.1-27.2-18.8-43.6-23.2-49.3c-4.4-5.7-11.8-9-22.2-10v-9h143.6v9
		c-11.6,0.3-19.2,2.1-23.1,5.2c-3.8,3.2-5.7,7.1-5.7,11.8c0,6.2,4,19.3,12,39.3l64.9,160.6l52-125.5l-13.7-35.2
		c-7.5-19.2-13.3-32-17.3-38.5c-4.1-6.4-8.8-11-14-13.8c-5.3-2.8-13.1-4.2-23.3-4.2v-9H87.5v9c-11.2,0.2-19.3,1.1-24.2,2.7
		c-3.4,1.1-6.1,3.1-8.1,5.7s-2.9,5.7-2.9,9.2c0,3.7,3.7,15.2,11,34.4l60.2,157l54-141.8c5.7-14.6,9.2-24.7,10.5-30
		c1.3-5.4,2-10.3,2-14.9c0-6.7-2.3-11.9-6.8-15.7c-4.6-3.8-13.3-5.9-26.1-6.2v-9h85.8V408.2z"/>
</g>
<g id="XMLID_3_">
	<path id="XMLID_4_" class="st2" d="M196.9,754.8c-5.7,0-10.9-1.2-15.6-3.5c-4.7-2.4-8.6-5.5-11.8-9.4s-5.6-8.4-7.4-13.5
		s-2.6-10.2-2.6-15.4c0-7.5,1.3-14.1,3.8-19.9s5.8-10.5,9.8-14.3s8.5-6.7,13.4-8.7s9.7-3,14.5-3c5.5,0,10.7,1.1,15.3,3.2
		s8.6,5,11.9,8.5c3.3,3.5,5.8,7.7,7.6,12.5s2.7,9.9,2.7,15.3c0,5.9-1,11.7-3,17.4s-4.8,10.9-8.5,15.4c-3.7,4.6-8.1,8.3-13.2,11.2
		C208.8,753.4,203.1,754.8,196.9,754.8z"/>
</g>
<g id="XMLID_2_">
</g>
<g id="XMLID_10_">
</g>
<g id="XMLID_11_">
</g>
<g id="XMLID_12_">
</g>
<g id="XMLID_13_">
</g>
<g id="XMLID_14_">
</g>
<g id="XMLID_15_">
</g>
<g id="XMLID_16_">
</g>
<g id="XMLID_17_">
</g>
<g id="XMLID_18_">
</g>
<g id="XMLID_19_">
</g>
<g id="XMLID_20_">
</g>
<g id="XMLID_21_">
</g>
<g id="XMLID_22_">
</g>
<g id="XMLID_23_">
</g>
</svg>
