<?xml version="1.0" encoding="utf-8"?>
<!-- Generator: Adobe Illustrator 19.0.0, SVG Export Plug-In . SVG Version: 6.00 Build 0)  -->
<svg version="1.1" id="Layer_1" xmlns="http://www.w3.org/2000/svg" xmlns:xlink="http://www.w3.org/1999/xlink" x="0px" y="0px"
	 viewBox="0 0 800 800" style="enable-background:new 0 0 800 800;" xml:space="preserve">
<style type="text/css">
	.st0{fill:#E65030;}
	.st1{fill:none;stroke:#E65030;stroke-width:10;stroke-miterlimit:10;}
</style>
<g id="XMLID_1_">
	<path id="XMLID_6_" class="st0" d="M61.6,137H36.7l-5,7.6L26,153c-1.1,1.8-1.9,3.4-2.4,4.9c-0.4,1.1-0.6,2.2-0.6,3.4
		c0,1.2,0.5,2.3,1.5,3.3c1,1,2.7,1.6,5,1.7v2.7h-24l0.6-2.7c2.1-0.4,4-1.4,5.7-2.8c2.2-2,5.4-6,9.5-12.1l57-84h2.7l-2.7,81.3
		c-0.1,4.2-0.2,6.8-0.2,7.7c0,3.3,0.5,5.7,1.6,7.3c1.1,1.5,2.9,2.4,5.4,2.6l-0.6,2.7H49.8l0.7-2.7c3.4-0.4,5.4-0.7,5.9-1
		c1.1-0.7,2.1-2.1,3-4.3c0.9-2.2,1.5-5.9,1.7-11.3L61.6,137z M61.6,131l1.5-32.4L40.8,131H61.6z"/>
	<path id="XMLID_9_" class="st0" d="M136.6,69.7l25.1,66.2l11.3-48c0.6-2.6,0.9-5,0.9-7c0-2.4-0.6-4.4-1.9-5.9s-3.4-2.3-6.4-2.6
		l0.7-2.7h25.5l-0.6,2.7c-3.2,0.2-5.9,1.4-8,3.4c-2.1,2-3.9,6-5.4,12.1l-19.6,82.3h-2.3l-32.2-84.7l-15.6,66
		c-0.5,2.3-0.8,4.3-0.8,6.2c0,2.6,0.7,4.7,2.1,6.3c1.4,1.6,3.6,2.4,6.7,2.4l-0.5,2.7H89.4l0.5-2.7c2.3,0,3.9-0.2,4.8-0.7
		c1.7-0.8,3.3-2.3,4.9-4.5c1.6-2.2,2.9-5.4,3.9-9.6l17-72.1c-2.1-2.9-3.9-4.7-5.3-5.6c-1.4-0.8-3.6-1.3-6.4-1.3l0.7-2.7H136.6z"/>
	<path id="XMLID_11_" class="st0" d="M270.6,137h-24.9l-5,7.6l-5.7,8.4c-1.1,1.8-1.9,3.4-2.4,4.9c-0.4,1.1-0.6,2.2-0.6,3.4
		c0,1.2,0.5,2.3,1.5,3.3c1,1,2.7,1.6,5,1.7v2.7h-24l0.6-2.7c2.1-0.4,4-1.4,5.7-2.8c2.2-2,5.4-6,9.5-12.1l57-84h2.7l-2.7,81.3
		c-0.1,4.2-0.2,6.8-0.2,7.7c0,3.3,0.5,5.7,1.6,7.3c1.1,1.5,2.9,2.4,5.4,2.6l-0.6,2.7h-34.8l0.7-2.7c3.4-0.4,5.4-0.7,5.9-1
		c1.1-0.7,2.1-2.1,3-4.3c0.9-2.2,1.5-5.9,1.7-11.3L270.6,137z M270.6,131l1.5-32.4L249.8,131H270.6z"/>
	<path id="XMLID_14_" class="st0" d="M373.2,67.4l-6.7,33.7h-2c-0.4-5.3-1.2-9.5-2.3-12.7c-1.7-4.6-3.9-8.1-6.6-10.6
		s-5.7-3.7-8.9-3.7c-3.1,0-5.8,1.5-8.1,4.4c-2.3,2.9-3.5,6.2-3.5,9.9c0,3.6,0.8,7.2,2.4,10.7c1.6,3.5,5.4,8.8,11.3,15.8
		c4.8,5.6,8,10.4,9.6,14.5c1.6,4.1,2.5,8.4,2.5,13.2c0,5.3-1.1,10.2-3.4,14.7c-2.3,4.5-5.6,8-10,10.4c-4.4,2.5-9.3,3.7-14.8,3.7
		c-3.4,0-7.7-0.6-12.8-1.9s-8.6-1.9-10.3-1.9c-1.3,0-2.5,0.3-3.6,0.8s-2.4,1.5-4,3h-2.3l7.2-37.9h2.3c0.5,6.6,1.6,12.3,3.3,17
		c1.7,4.7,4,8.3,7.1,10.9c3.1,2.6,6.6,3.9,10.5,3.9c3.9,0,7.2-1.6,9.8-4.8c2.6-3.2,3.9-6.9,3.9-11.2c0-3.7-0.7-7.2-2.2-10.5
		s-4.9-8.3-10.1-14.7s-8.9-12.2-10.9-17.3c-1.5-3.8-2.2-7.8-2.2-12c0-7.4,2.4-13.7,7.1-19.1c4.7-5.4,10.8-8.1,18.4-8.1
		c3.4,0,8,1,13.6,2.9c3.3,1.1,5.6,1.7,6.9,1.7c1.1,0,2.2-0.3,3.1-0.9c0.9-0.6,2-1.8,3.2-3.6H373.2z"/>
	<path id="XMLID_16_" class="st0" d="M404.3,123.4l-6.5,27.7c-0.9,3.9-1.4,6.7-1.4,8.3c0,2.2,0.6,3.9,1.8,5.1
		c1.2,1.1,3.9,1.8,8.1,1.9l-0.8,2.7h-39.2l0.7-2.7c3.3,0,5.7-0.5,7.1-1.2c1.4-0.8,2.5-2,3.4-3.7c0.7-1.1,1.7-4.6,3-10.3L395.3,88
		c1-4.2,1.5-7.2,1.5-9c0-1.8-0.7-3.3-2-4.6s-3.7-1.9-7.1-2l0.7-2.7h31.8c8.7,0,15,1.4,18.8,4.1c5.9,4.3,8.9,10.7,8.9,19.3
		c0,8.3-3,15.6-8.9,21.9c-5.9,6.3-13.9,9.5-23.9,9.5C412.3,124.5,408.6,124.2,404.3,123.4z M405.5,117.7c2.6,0.4,4.7,0.6,6.4,0.6
		c5.5,0,9.7-3.1,12.9-9.2s4.7-12.6,4.7-19.3c0-4.5-1-8.1-3-10.6c-2-2.5-4.8-3.8-8.4-3.8c-0.8,0-1.7,0-2.8,0.1L405.5,117.7z"/>
	<path id="XMLID_19_" class="st0" d="M460.8,72.4l0.7-2.7h39.2l-0.8,2.7c-3.6,0-6.3,1-8.1,2.9c-1.9,2-3.5,6-4.9,12.2l-14.7,63.6
		c-1.1,4.5-1.6,7.5-1.6,9c0,1.8,0.6,3.1,1.7,4.1c1.4,1.3,4.1,2,8.1,2.1l-0.6,2.7h-39.9l0.7-2.7c4,0,6.9-0.9,8.8-2.8
		c1.9-1.9,3.5-6,5-12.3L469,87.6c0.9-3.9,1.4-6.9,1.4-8.9c0-1.8-0.6-3.2-1.7-4.2S465,72.7,460.8,72.4z"/>
	<path id="XMLID_21_" class="st0" d="M526.1,120.5l-7.1,30.1c-1,4.2-1.5,7.4-1.5,9.4c0,1.9,0.6,3.3,1.8,4.5c1.2,1.1,3.8,1.7,7.6,1.8
		l-0.8,2.7h-38.7l0.7-2.7c3.9,0,6.7-0.9,8.5-2.8c1.8-1.9,3.4-6,4.9-12.5l14.9-63.7c0.8-3.6,1.2-6.4,1.2-8.4c0-2-0.5-3.4-1.5-4.5
		s-3.4-1.7-7.2-2.1l0.6-2.7h33.3c9.5,0,16.2,2.1,20.1,6.2c3.9,4.1,5.8,9.4,5.8,15.8c0,6.8-2.3,12.9-6.8,18.4
		c-2.8,3.4-7.9,6.4-15.1,8.9l7.2,30.1c1.9,8.1,3.6,12.9,5.1,14.6c1.4,1.7,3.8,2.6,7.2,2.7v2.7h-25l-11.4-48.5l-2,0.1
		C527.7,120.7,527,120.6,526.1,120.5z M526.9,116.1c1.4,0.1,2.5,0.1,3.5,0.1c5.8,0,10.5-2.4,14.2-7.3c3.7-4.9,5.6-11.3,5.6-19.2
		c0-4.7-1-8.3-3-10.7c-2-2.4-4.6-3.7-7.8-3.7c-0.8,0-1.7,0-2.8,0.1L526.9,116.1z"/>
	<path id="XMLID_24_" class="st0" d="M589,72.4l0.7-2.7h39.2l-0.8,2.7c-3.6,0-6.3,1-8.1,2.9c-1.9,2-3.5,6-4.9,12.2l-14.7,63.6
		c-1.1,4.5-1.6,7.5-1.6,9c0,1.8,0.6,3.1,1.7,4.1c1.4,1.3,4.1,2,8.1,2.1l-0.6,2.7H568l0.7-2.7c4,0,6.9-0.9,8.8-2.8
		c1.9-1.9,3.5-6,5-12.3l14.8-63.6c0.9-3.9,1.4-6.9,1.4-8.9c0-1.8-0.6-3.2-1.7-4.2S593.2,72.7,589,72.4z"/>
	<path id="XMLID_26_" class="st0" d="M662.7,69.7l25.1,66.2l11.3-48c0.6-2.6,0.9-5,0.9-7c0-2.4-0.6-4.4-1.9-5.9
		c-1.2-1.5-3.4-2.3-6.4-2.6l0.7-2.7h25.5l-0.6,2.7c-3.2,0.2-5.9,1.4-8,3.4c-2.1,2-3.9,6-5.4,12.1l-19.6,82.3H682l-32.2-84.7
		l-15.6,66c-0.5,2.3-0.8,4.3-0.8,6.2c0,2.6,0.7,4.7,2.1,6.3c1.4,1.6,3.6,2.4,6.7,2.4l-0.5,2.7h-26.2l0.5-2.7c2.3,0,3.9-0.2,4.8-0.7
		c1.7-0.8,3.3-2.3,4.9-4.5c1.6-2.2,2.9-5.4,3.9-9.6l17-72.1c-2.1-2.9-3.9-4.7-5.3-5.6c-1.4-0.8-3.6-1.3-6.4-1.3l0.7-2.7H662.7z"/>
	<path id="XMLID_28_" class="st0" d="M797.8,67.4l-5.6,31.9H790c-0.3-9.3-2-16-5.1-20c-3.1-4.1-7.4-6.1-12.9-6.1
		c-5.7,0-11.4,2.5-17.1,7.4c-5.7,5-10.5,12.6-14.5,22.9c-4,10.3-6,21.2-6,32.6c0,9.8,1.8,17.2,5.3,22.4c3.6,5.2,7.7,7.7,12.5,7.7
		c2,0,4.5-0.7,7.3-2.1l6.2-26.2c1-4.4,1.5-7.3,1.5-8.6c0-1.8-0.6-3.3-1.9-4.6c-1.2-1.2-3.4-1.9-6.4-1.9l0.6-2.8h34.7l-0.5,2.8
		c-2.1,0.1-3.7,0.6-4.8,1.4c-1.2,0.8-2.1,2-2.8,3.6c-0.4,0.9-1,3.3-1.8,7.2l-7.3,30.5c-8.3,3.9-17,5.9-26.2,5.9
		c-7.1,0-13.1-1.6-18-4.8c-5-3.2-9.1-8.2-12.3-15.1s-4.9-14.7-4.9-23.5c0-18.8,6.7-34.2,20.2-46.4c10.5-9.4,22.5-14.1,35.9-14.1
		c2.3,0,4.5,0.1,6.5,0.4c1.5,0.2,4,0.9,7.7,2.1c2.4,0.7,4,1.1,4.9,1.1c1.7,0,3.4-1.2,4.9-3.6H797.8z"/>
	<path id="XMLID_30_" class="st0" d="M62,255.3l-8.9,37.5c6-0.1,10-0.4,11.8-0.9c3-0.7,5.6-2.3,8.1-4.7c2.4-2.4,4.4-5.7,6-9.9h2.3
		l-9.2,39.2h-2.4c0.4-2.5,0.6-4.6,0.6-6.1c0-3-0.5-5.4-1.5-7.3c-1-1.8-2.3-3-3.9-3.7c-1.6-0.7-5.9-1.1-13-1.3l-7.2,31l-1.4,6.2
		c-0.2,1.2-0.3,2.4-0.3,3.6c0,1.7,0.3,3.1,0.8,4c0.5,1,1.4,1.7,2.6,2.3c1.2,0.6,3.4,0.9,6.8,0.9l-0.7,2.7H12.4l0.7-2.7
		c3.9,0,6.7-0.9,8.5-2.7c1.8-1.8,3.4-5.7,4.8-11.7l14.3-60.8c1.5-6.4,2.3-10.5,2.4-12.3c-0.1-1.7-0.7-3.2-1.9-4.4
		c-1.2-1.2-3.6-1.9-7.3-2.1l0.6-2.7h65.7l-5.4,26.2h-2.2c-0.2-5.5-0.9-9.5-2.1-12.2c-1.1-2.7-3-4.7-5.7-6.2
		c-2.6-1.5-6.8-2.2-12.6-2.2H62z"/>
	<path id="XMLID_32_" class="st0" d="M128.2,300.5l-7.1,30.1c-1,4.2-1.5,7.4-1.5,9.4c0,1.9,0.6,3.3,1.8,4.5c1.2,1.1,3.8,1.7,7.6,1.8
		l-0.8,2.7H89.5l0.7-2.7c3.9,0,6.7-0.9,8.5-2.8c1.8-1.9,3.4-6,4.9-12.5l14.9-63.7c0.8-3.6,1.2-6.4,1.2-8.4c0-2-0.5-3.4-1.5-4.5
		c-1-1-3.4-1.7-7.2-2.1l0.6-2.7H145c9.5,0,16.2,2.1,20.1,6.2c3.9,4.1,5.8,9.4,5.8,15.8c0,6.8-2.3,12.9-6.8,18.4
		c-2.8,3.4-7.9,6.4-15.1,8.9l7.2,30.1c1.9,8.1,3.6,12.9,5.1,14.6c1.4,1.7,3.8,2.6,7.2,2.7v2.7h-25l-11.4-48.5l-2,0.1
		C129.7,300.7,129.1,300.6,128.2,300.5z M129,296.1c1.4,0.1,2.5,0.1,3.5,0.1c5.8,0,10.5-2.4,14.2-7.3c3.7-4.9,5.6-11.3,5.6-19.2
		c0-4.7-1-8.3-3-10.7c-2-2.4-4.6-3.7-7.8-3.7c-0.8,0-1.7,0-2.8,0.1L129,296.1z"/>
	<path id="XMLID_35_" class="st0" d="M208.4,351.3c-6.5,0-11.7-1.6-15.7-4.9c-4-3.3-7-7.7-9-13.4c-2-5.7-3-11.2-3-16.6
		c0-10.8,2.5-21.8,7.5-32.8c5-11,11.8-19.8,20.3-26.4c8.5-6.6,16.9-9.9,25.2-9.9c4.9,0,9.5,1.5,13.8,4.5c4.4,3,7.8,7.3,10.2,12.7
		c2.4,5.4,3.6,10.9,3.6,16.4c0,12.4-3.2,24.7-9.5,37.2c-6.4,12.4-13.5,21.4-21.5,27C224.5,349.3,217.1,351.3,208.4,351.3z
		 M231.8,253.3c-3.1,0-5.8,0.7-8,2.1s-4.5,3.7-6.8,7c-2.4,3.3-4.8,7.9-7.2,14c-2.5,6.1-4.8,14.3-6.9,24.8
		c-2.2,10.4-3.2,19.2-3.2,26.1c0,6,1,10.5,3.1,13.5c2.1,3.1,4.8,4.6,8.1,4.6c4.3,0,8-1.8,11.1-5.3c6-7.1,11-17.5,14.8-31.2
		c3.8-13.7,5.7-25.9,5.7-36.6c0-6.7-1-11.5-3.1-14.5C237.3,254.8,234.8,253.3,231.8,253.3z"/>
	<path id="XMLID_38_" class="st0" d="M305.2,249.7l25.1,66.2l11.3-48c0.6-2.6,0.9-5,0.9-7c0-2.4-0.6-4.4-1.9-5.9s-3.4-2.3-6.4-2.6
		l0.7-2.7h25.5l-0.6,2.7c-3.2,0.2-5.9,1.4-8,3.4c-2.1,2-3.9,6-5.4,12.1l-19.6,82.3h-2.3l-32.2-84.7l-15.6,66
		c-0.5,2.3-0.8,4.3-0.8,6.2c0,2.6,0.7,4.7,2.1,6.3c1.4,1.6,3.6,2.4,6.7,2.4l-0.5,2.7H258l0.5-2.7c2.3,0,3.9-0.2,4.8-0.7
		c1.7-0.8,3.3-2.3,4.9-4.5c1.6-2.2,2.9-5.4,3.9-9.6l17-72.1c-2.1-2.9-3.9-4.7-5.3-5.6c-1.4-0.8-3.6-1.3-6.4-1.3l0.7-2.7H305.2z"/>
	<path id="XMLID_40_" class="st0" d="M369,249.7h64.7l-6.1,26.7h-2.1c0.1-1.4,0.1-2.7,0.1-3.7c0-5.1-1.2-9-3.6-11.8
		c-2.4-2.8-6.5-4.4-12.2-4.8l-17.9,74.8c-1,4.2-1.5,7.2-1.5,9.2c0,1.9,0.6,3.3,1.8,4.4c1.2,1.1,3.7,1.7,7.5,1.8l-0.5,2.7h-39.9
		l0.7-2.7c4.1,0,7-0.9,8.9-2.8c1.9-1.9,3.6-6.1,5.1-12.6l17.9-74.8c-6.2,0.2-11.3,1.9-15.5,5s-7.9,8.2-11.4,15.4h-2.3L369,249.7z"/>
	<path id="XMLID_42_" class="st0" d="M417.2,308.5h34.5l-3.7,15.2h-34.7L417.2,308.5z"/>
	<path id="XMLID_44_" class="st0" d="M498.9,255.2l-8.9,38.5h2.7c7.2,0,12.4-1.2,15.7-3.5c3.3-2.3,6.1-6.5,8.4-12.5h2.2l-9,38.7
		h-2.1c0.4-2.6,0.5-4.7,0.5-6.3c0-2.7-0.6-4.9-1.9-6.6c-1.3-1.7-3-2.9-5-3.7c-1.3-0.5-4.1-0.7-8.4-0.7h-4.6l-7.7,33.3
		c-0.7,2.9-1,5.1-1,6.5c0,1.1,0.4,2,1.3,2.7c1.3,1,3.7,1.5,7.2,1.5c6.8,0,13.1-1.8,19.1-5.3c6-3.5,11.3-8.9,16.1-16.1h2.4l-8.4,27.2
		h-68.7l0.7-2.7c4,0,7-0.9,8.8-2.8c1.9-1.9,3.5-6,5-12.4l15.1-63.9c0.8-3.6,1.2-6.4,1.2-8.4c0-1.9-0.5-3.3-1.6-4.3
		c-1.1-1-3.5-1.7-7.3-2l0.7-2.7h64.1l-5.2,24.8h-2.1c-0.2-4.9-0.8-8.3-1.8-10.3c-1.7-3.1-3.9-5.4-6.6-6.8c-2.7-1.4-7.2-2.2-13.4-2.2
		H498.9z"/>
	<path id="XMLID_46_" class="st0" d="M577.2,249.7l25.1,66.2l11.3-48c0.6-2.6,0.9-5,0.9-7c0-2.4-0.6-4.4-1.9-5.9
		c-1.2-1.5-3.4-2.3-6.4-2.6l0.7-2.7h25.5l-0.6,2.7c-3.2,0.2-5.9,1.4-8,3.4c-2.1,2-3.9,6-5.4,12.1l-19.6,82.3h-2.3l-32.2-84.7
		l-15.6,66c-0.5,2.3-0.8,4.3-0.8,6.2c0,2.6,0.7,4.7,2.1,6.3c1.4,1.6,3.6,2.4,6.7,2.4l-0.5,2.7H530l0.5-2.7c2.3,0,3.9-0.2,4.8-0.7
		c1.7-0.8,3.3-2.3,4.9-4.5c1.6-2.2,2.9-5.4,3.9-9.6l17-72.1c-2.1-2.9-3.9-4.7-5.3-5.6c-1.4-0.8-3.6-1.3-6.4-1.3l0.7-2.7H577.2z"/>
	<path id="XMLID_48_" class="st0" d="M617.2,349l0.7-2.7c3.9,0,6.8-1,8.8-3s3.6-5.7,4.9-11.1l14.6-62.6c0.9-4.1,1.4-7.5,1.4-10.1
		c0-2.2-0.6-3.9-1.7-5c-1.1-1.1-3.9-1.8-8.5-2.1l0.7-2.7h27.5c14.5,0,25,3.6,31.4,10.9c6.4,7.3,9.6,17.4,9.6,30.5
		c0,9.2-1.5,17-4.4,23.2c-5.8,12.2-12.7,21-20.7,26.5c-8,5.5-18.2,8.2-30.8,8.2H617.2z M667.4,255.5l-17.7,75.3
		c-0.8,3.5-1.2,6-1.2,7.5c0,1.4,0.5,2.5,1.4,3.3c1.2,1.1,2.9,1.7,5.3,1.7c5.6,0,10.5-2.1,14.9-6.4c5.6-5.5,9.9-12.9,12.8-22.3
		c2.9-9.3,4.4-18.6,4.4-27.8c0-6.6-0.9-12.4-2.5-17.4c-1.7-4.9-4.3-8.7-7.9-11.3C674.4,256.4,671.3,255.5,667.4,255.5z"/>
	<path id="XMLID_51_" class="st0" d="M8,529l0.7-2.7c3.9,0,6.8-1,8.8-3c2-2,3.6-5.7,4.9-11.1L37,449.6c0.9-4.1,1.4-7.5,1.4-10.1
		c0-2.2-0.6-3.9-1.7-5c-1.1-1.1-3.9-1.8-8.5-2.1l0.7-2.7h27.5c14.5,0,25,3.6,31.4,10.9c6.4,7.3,9.6,17.4,9.6,30.5
		c0,9.2-1.5,17-4.4,23.2c-5.8,12.2-12.7,21-20.7,26.5c-8,5.5-18.2,8.2-30.8,8.2H8z M58.2,435.5l-17.7,75.3c-0.8,3.5-1.2,6-1.2,7.5
		c0,1.4,0.5,2.5,1.4,3.3c1.2,1.1,2.9,1.7,5.3,1.7c5.6,0,10.5-2.1,14.9-6.4c5.6-5.5,9.9-12.9,12.8-22.3c2.9-9.3,4.4-18.6,4.4-27.8
		c0-6.6-0.9-12.4-2.5-17.4c-1.7-4.9-4.3-8.7-7.9-11.3C65.2,436.4,62,435.5,58.2,435.5z"/>
	<path id="XMLID_54_" class="st0" d="M145.9,435.2l-8.9,38.5h2.7c7.2,0,12.4-1.2,15.7-3.5c3.3-2.3,6.1-6.5,8.4-12.5h2.2l-9,38.7
		h-2.1c0.4-2.6,0.5-4.7,0.5-6.3c0-2.7-0.6-4.9-1.9-6.6c-1.3-1.7-3-2.9-5-3.7c-1.3-0.5-4.1-0.7-8.4-0.7h-4.6l-7.7,33.3
		c-0.7,2.9-1,5.1-1,6.5c0,1.1,0.4,2,1.3,2.7c1.3,1,3.7,1.5,7.2,1.5c6.8,0,13.1-1.8,19.1-5.3c6-3.5,11.3-8.9,16.1-16.1h2.4l-8.4,27.2
		H95.8l0.7-2.7c4,0,7-0.9,8.8-2.8c1.9-1.9,3.5-6,5-12.4l15.1-63.9c0.8-3.6,1.2-6.4,1.2-8.4c0-1.9-0.5-3.3-1.6-4.3s-3.5-1.7-7.3-2
		l0.7-2.7h64.1l-5.2,24.8h-2.1c-0.2-4.9-0.8-8.3-1.8-10.3c-1.7-3.1-3.9-5.4-6.6-6.8c-2.7-1.4-7.2-2.2-13.4-2.2H145.9z"/>
	<path id="XMLID_56_" class="st0" d="M199.9,531.3l2.6-83.1c0.1-4.8,0.2-7.4,0.2-7.6c0-2.7-0.5-4.7-1.6-5.9c-1-1.3-3-2-5.8-2.3
		l0.7-2.7h33.8l-0.7,2.7c-2.9,0-5.1,1.1-6.5,3.2c-1.5,2.1-2.3,6.6-2.6,13.3l-1.9,51.8l31.4-45c4.1-5.8,6.6-9.8,7.5-12.1
		c0.9-2.2,1.4-4.2,1.4-5.9c0-1.2-0.4-2.3-1.3-3.3c-0.9-1-2.5-1.7-5-2.2l0.8-2.7h22.2v2.7c-1.9,0.6-3.4,1.4-4.6,2.6
		c-1.7,1.6-4.4,5-8.1,10.3l-60,86.1H199.9z"/>
	<path id="XMLID_58_" class="st0" d="M307.8,435.2l-8.9,38.5h2.7c7.2,0,12.4-1.2,15.7-3.5c3.3-2.3,6.1-6.5,8.4-12.5h2.2l-9,38.7
		h-2.1c0.4-2.6,0.5-4.7,0.5-6.3c0-2.7-0.6-4.9-1.9-6.6c-1.3-1.7-3-2.9-5-3.7c-1.3-0.5-4.1-0.7-8.4-0.7h-4.6l-7.7,33.3
		c-0.7,2.9-1,5.1-1,6.5c0,1.1,0.4,2,1.3,2.7c1.3,1,3.7,1.5,7.2,1.5c6.8,0,13.1-1.8,19.1-5.3c6-3.5,11.3-8.9,16.1-16.1h2.4l-8.4,27.2
		h-68.7l0.7-2.7c4,0,7-0.9,8.8-2.8c1.9-1.9,3.5-6,5-12.4l15.1-63.9c0.8-3.6,1.2-6.4,1.2-8.4c0-1.9-0.5-3.3-1.6-4.3s-3.5-1.7-7.3-2
		l0.7-2.7h64.1l-5.2,24.8h-2.1c-0.2-4.9-0.8-8.3-1.8-10.3c-1.7-3.1-3.9-5.4-6.6-6.8c-2.7-1.4-7.2-2.2-13.4-2.2H307.8z"/>
	<path id="XMLID_60_" class="st0" d="M403.2,529H339l0.7-2.7c3.8,0,6.6-0.9,8.4-2.7c1.8-1.8,3.4-5.9,4.9-12.3l14.9-63.8
		c0.8-3.5,1.2-6.3,1.2-8.3c0-2-0.6-3.5-1.8-4.7c-1.2-1.2-3.5-1.9-7-2.1l0.7-2.7h38.6l-0.7,2.7c-3.7,0.1-6.5,1.1-8.3,3.1
		c-1.8,2-3.5,5.9-4.9,11.9L372,505.8c-1.7,7.4-2.6,11.9-2.6,13.5c0,1,0.4,1.9,1.3,2.7c0.9,0.9,2.3,1.3,4.3,1.3
		c6.6,0,12.9-1.9,19-5.6c6.1-3.7,11.3-9.3,15.5-16.6h2.5L403.2,529z"/>
	<path id="XMLID_62_" class="st0" d="M451.2,531.3c-6.5,0-11.7-1.6-15.7-4.9c-4-3.3-7-7.7-9-13.4c-2-5.7-3-11.2-3-16.6
		c0-10.8,2.5-21.8,7.5-32.8s11.8-19.8,20.3-26.4c8.5-6.6,16.9-9.9,25.2-9.9c4.9,0,9.5,1.5,13.8,4.5c4.4,3,7.8,7.3,10.2,12.7
		s3.6,10.9,3.6,16.4c0,12.4-3.2,24.7-9.5,37.2c-6.4,12.4-13.5,21.4-21.5,27C467.2,529.3,459.9,531.3,451.2,531.3z M474.6,433.3
		c-3.1,0-5.8,0.7-8,2.1c-2.2,1.4-4.5,3.7-6.8,7c-2.4,3.3-4.8,7.9-7.2,14c-2.5,6.1-4.8,14.3-6.9,24.8c-2.2,10.4-3.2,19.2-3.2,26.1
		c0,6,1,10.5,3.1,13.5c2.1,3.1,4.8,4.6,8.1,4.6c4.3,0,8-1.8,11.1-5.3c6-7.1,11-17.5,14.8-31.2c3.8-13.7,5.7-25.9,5.7-36.6
		c0-6.7-1-11.5-3.1-14.5C480.1,434.8,477.6,433.3,474.6,433.3z"/>
	<path id="XMLID_65_" class="st0" d="M539.1,483.4l-6.5,27.7c-0.9,3.9-1.4,6.7-1.4,8.3c0,2.2,0.6,3.9,1.8,5.1
		c1.2,1.1,3.9,1.8,8.1,1.9l-0.8,2.7h-39.2l0.7-2.7c3.3,0,5.7-0.5,7.1-1.2s2.5-2,3.4-3.7c0.7-1.1,1.7-4.6,3-10.3l14.9-63.1
		c1-4.2,1.5-7.2,1.5-9c0-1.8-0.7-3.3-2-4.6c-1.3-1.2-3.7-1.9-7.1-2l0.7-2.7h31.8c8.7,0,15,1.4,18.8,4.1c5.9,4.3,8.9,10.7,8.9,19.3
		c0,8.3-3,15.6-8.9,21.9c-5.9,6.3-13.9,9.5-23.9,9.5C547.1,484.5,543.4,484.2,539.1,483.4z M540.3,477.7c2.6,0.4,4.7,0.6,6.4,0.6
		c5.5,0,9.7-3.1,12.9-9.2s4.7-12.6,4.7-19.3c0-4.5-1-8.1-3-10.6c-2-2.5-4.8-3.8-8.4-3.8c-0.8,0-1.7,0-2.8,0.1L540.3,477.7z"/>
	<path id="XMLID_68_" class="st0" d="M624.7,435.2l-8.9,38.5h2.7c7.2,0,12.4-1.2,15.7-3.5c3.3-2.3,6.1-6.5,8.4-12.5h2.2l-9,38.7
		h-2.1c0.4-2.6,0.5-4.7,0.5-6.3c0-2.7-0.6-4.9-1.9-6.6c-1.3-1.7-3-2.9-5-3.7c-1.3-0.5-4.1-0.7-8.4-0.7h-4.6l-7.7,33.3
		c-0.7,2.9-1,5.1-1,6.5c0,1.1,0.4,2,1.3,2.7c1.3,1,3.7,1.5,7.2,1.5c6.8,0,13.1-1.8,19.1-5.3c6-3.5,11.3-8.9,16.1-16.1h2.4l-8.4,27.2
		h-68.7l0.7-2.7c4,0,7-0.9,8.8-2.8c1.9-1.9,3.5-6,5-12.4l15.1-63.9c0.8-3.6,1.2-6.4,1.2-8.4c0-1.9-0.5-3.3-1.6-4.3
		c-1.1-1-3.5-1.7-7.3-2l0.7-2.7h64.1l-5.2,24.8H654c-0.2-4.9-0.8-8.3-1.8-10.3c-1.7-3.1-3.9-5.4-6.6-6.8c-2.7-1.4-7.2-2.2-13.4-2.2
		H624.7z"/>
	<path id="XMLID_70_" class="st0" d="M694.6,480.5l-7.1,30.1c-1,4.2-1.5,7.4-1.5,9.4c0,1.9,0.6,3.3,1.8,4.5c1.2,1.1,3.8,1.7,7.6,1.8
		l-0.8,2.7h-38.7l0.7-2.7c3.9,0,6.7-0.9,8.5-2.8c1.8-1.9,3.4-6,4.9-12.5l14.9-63.7c0.8-3.6,1.2-6.4,1.2-8.4c0-2-0.5-3.4-1.5-4.5
		s-3.4-1.7-7.2-2.1l0.6-2.7h33.3c9.5,0,16.2,2.1,20.1,6.2c3.9,4.1,5.8,9.4,5.8,15.8c0,6.8-2.3,12.9-6.8,18.4
		c-2.8,3.4-7.9,6.4-15.1,8.9l7.2,30.1c1.9,8.1,3.6,12.9,5.1,14.6c1.4,1.7,3.8,2.6,7.2,2.7v2.7h-25l-11.4-48.5l-2,0.1
		C696.2,480.7,695.5,480.6,694.6,480.5z M695.5,476.1c1.4,0.1,2.5,0.1,3.5,0.1c5.8,0,10.5-2.4,14.2-7.3c3.7-4.9,5.6-11.3,5.6-19.2
		c0-4.7-1-8.3-3-10.7c-2-2.4-4.6-3.7-7.8-3.7c-0.8,0-1.7,0-2.8,0.1L695.5,476.1z"/>
</g>
<path id="XMLID_2_" class="st1" d="M292,567c0,80.1,202,178.5,391,178.5"/>
<path id="XMLID_3_" class="st1" d="M677,748c0,13.8-157,16.5-246.5,16.5"/>
<path id="XMLID_5_" class="st1" d="M679.5,745.5C468.6,603.1,445.9,664.3,495,656.3"/>
<g id="XMLID_4_">
</g>
<g id="XMLID_73_">
</g>
<g id="XMLID_74_">
</g>
<g id="XMLID_75_">
</g>
<g id="XMLID_76_">
</g>
<g id="XMLID_77_">
</g>
<g id="XMLID_78_">
</g>
<g id="XMLID_79_">
</g>
<g id="XMLID_80_">
</g>
<g id="XMLID_81_">
</g>
<g id="XMLID_82_">
</g>
<g id="XMLID_83_">
</g>
<g id="XMLID_84_">
</g>
<g id="XMLID_85_">
</g>
<g id="XMLID_86_">
</g>
</svg>
