<?xml version="1.0" encoding="utf-8"?>
<!-- Generator: Adobe Illustrator 19.0.0, SVG Export Plug-In . SVG Version: 6.00 Build 0)  -->
<svg version="1.1" id="Layer_1" xmlns="http://www.w3.org/2000/svg" xmlns:xlink="http://www.w3.org/1999/xlink" x="0px" y="0px"
	 viewBox="0 0 1920 520" style="enable-background:new 0 0 1920 520;" xml:space="preserve">
<style type="text/css">
	.st0{fill:#FFFFFF;}
</style>
<g id="XMLID_1_">
	<g id="XMLID_2_">
		<path id="XMLID_119_" class="st0" d="M315.5,310.9l79-55.7c2.4-1.7,5.4,1.1,3.9,3.6l-87.8,152c-1.5,2.5-5.3,1.3-5.1-1.6l8.8-96.3
			C314.4,312,314.8,311.3,315.5,310.9z"/>
		<path id="XMLID_118_" class="st0" d="M490.8,305l-158,111.5c-4.8,3.4-10.7-2.1-7.8-7.2l175.6-304.1c2.9-5,10.6-2.6,10.1,3.2
			L493.1,301C492.9,302.6,492.1,304.1,490.8,305z"/>
		<path id="XMLID_117_" class="st0" d="M292.3,312.2l8.8,96.9c0.3,2.9-3.6,4.2-5.1,1.6l-88.4-153c-1.5-2.5,1.5-5.3,3.9-3.6
			l79.5,56.1C291.8,310.7,292.2,311.4,292.3,312.2z"/>
		<path id="XMLID_116_" class="st0" d="M112.8,301L95.3,108.4c-0.5-5.8,7.2-8.3,10.1-3.2L281,409.3c2.9,5-3.1,10.5-7.8,7.2
			L115.1,305C113.8,304.1,113,302.6,112.8,301z"/>
	</g>
	<g id="XMLID_3_">
		<g id="XMLID_114_">
			<path id="XMLID_46_" class="st0" d="M665.7,291L599,167.4h40.8l47.2,91.5l45.7-91.5h39.9L705.9,291H665.7z"/>
			<path id="XMLID_48_" class="st0" d="M940.7,291h-41L883.5,263h-74.5L793.6,291h-39.9l72.6-123.7h39.8L940.7,291z M871.4,242.1
				l-25.7-45.9l-25.2,45.9H871.4z"/>
			<path id="XMLID_51_" class="st0" d="M961.1,291V167.4h36.6l76.3,82.6v-82.6h35V291h-37.8l-75.2-80.6V291H961.1z"/>
			<path id="XMLID_53_" class="st0" d="M1147.7,291V167.4h37.7V291H1147.7z"/>
			<path id="XMLID_55_" class="st0" d="M1202.3,291l63.7-64.5l-57.8-59.1h44l37.4,39.7l36.6-39.7h43.6l-58,60.1l63.7,63.6h-45.4
				l-41.3-42.8l-41.5,42.8H1202.3z"/>
			<path id="XMLID_57_" class="st0" d="M1393.9,291V167.4h37.7V291H1393.9z"/>
			<path id="XMLID_59_" class="st0" d="M1635.6,291h-41l-16.3-28.1h-74.5l-15.4,28.1h-39.9l72.6-123.7h39.8L1635.6,291z
				 M1566.2,242.1l-25.7-45.9l-25.2,45.9H1566.2z"/>
			<path id="XMLID_62_" class="st0" d="M1655.9,291V167.4h36.6l76.3,82.6v-82.6h35V291h-37.8l-75.2-80.6V291H1655.9z"/>
		</g>
		<g id="XMLID_113_">
			<path id="XMLID_5_" class="st0" d="M1038,321.4h16.6c3.7,0,6.6,0.2,8.5,0.7c2.6,0.6,4.9,1.8,6.8,3.4s3.3,3.6,4.3,5.9
				s1.5,5.2,1.5,8.6c0,3-0.5,5.6-1.4,7.8c-1.1,2.7-2.7,4.8-4.8,6.4c-1.6,1.2-3.7,2.2-6.4,2.9c-2,0.5-4.7,0.8-8,0.8H1038V321.4z
				 M1047,327.6v24.2h6.8c2.5,0,4.4-0.1,5.5-0.3c1.5-0.3,2.7-0.8,3.7-1.5c1-0.7,1.8-1.9,2.4-3.5s0.9-3.9,0.9-6.7s-0.3-5-0.9-6.5
				c-0.6-1.5-1.5-2.7-2.6-3.5c-1.1-0.8-2.5-1.4-4.2-1.7c-1.3-0.2-3.7-0.3-7.4-0.3H1047z"/>
			<path id="XMLID_8_" class="st0" d="M1083.3,358v-36.5h33.3v6.2h-24.2v8.1h22.5v6.2h-22.5v9.9h25.1v6.2H1083.3z"/>
			<path id="XMLID_10_" class="st0" d="M1136.5,358l-16-36.5h9.8l11.4,27l11-27h9.6l-16.1,36.5H1136.5z"/>
			<path id="XMLID_12_" class="st0" d="M1166.9,358v-36.5h33.3v6.2H1176v8.1h22.5v6.2H1176v9.9h25.1v6.2H1166.9z"/>
			<path id="XMLID_14_" class="st0" d="M1209,358v-36.2h9.1v30.1h22.5v6.2H1209z"/>
			<path id="XMLID_16_" class="st0" d="M1245.2,339.9c0-3.7,0.7-6.8,2.1-9.4c1-1.9,2.4-3.5,4.2-5c1.8-1.5,3.7-2.6,5.8-3.3
				c2.8-1,6-1.4,9.7-1.4c6.6,0,11.9,1.7,15.9,5s6,8,6,13.9c0,5.9-2,10.5-5.9,13.8s-9.2,5-15.8,5c-6.7,0-12-1.7-15.9-5
				C1247.1,350.3,1245.2,345.7,1245.2,339.9z M1254.5,339.7c0,4.1,1.2,7.3,3.5,9.4c2.3,2.1,5.3,3.2,8.9,3.2c3.6,0,6.6-1.1,8.9-3.2
				c2.3-2.1,3.5-5.3,3.5-9.5c0-4.2-1.1-7.3-3.4-9.4s-5.3-3.1-9-3.1c-3.7,0-6.7,1-9,3.1C1255.7,332.3,1254.5,335.5,1254.5,339.7z"/>
			<path id="XMLID_19_" class="st0" d="M1295.8,358v-36.5h14.5c5.5,0,9.1,0.2,10.8,0.5c2.6,0.5,4.7,1.7,6.5,3.6
				c1.7,1.8,2.6,4.2,2.6,7.1c0,2.2-0.5,4.1-1.5,5.7s-2.3,2.7-3.8,3.6c-1.5,0.9-3.1,1.4-4.7,1.7c-2.2,0.3-5.3,0.5-9.4,0.5h-5.9V358
				H1295.8z M1304.8,327.6V338h5c3.6,0,6-0.2,7.2-0.6c1.2-0.4,2.1-1,2.8-1.8c0.7-0.8,1-1.8,1-2.8c0-1.3-0.5-2.4-1.4-3.3
				c-1-0.9-2.2-1.4-3.6-1.6c-1.1-0.2-3.3-0.2-6.5-0.2H1304.8z"/>
			<path id="XMLID_22_" class="st0" d="M1337.5,358v-36.5h13.6l8.1,24.9l8.1-24.9h13.6V358h-8.4v-28.7l-8.9,28.7h-8.7l-8.9-28.7V358
				H1337.5z"/>
			<path id="XMLID_24_" class="st0" d="M1389.8,358v-36.5h33.3v6.2h-24.2v8.1h22.5v6.2h-22.5v9.9h25.1v6.2H1389.8z"/>
			<path id="XMLID_26_" class="st0" d="M1431.7,358v-36.5h8.8l18.4,24.4v-24.4h8.4V358h-9.1l-18.1-23.8V358H1431.7z"/>
			<path id="XMLID_28_" class="st0" d="M1487,358v-30.3h-13.3v-6.2h35.7v6.2h-13.3V358H1487z"/>
			<path id="XMLID_30_" class="st0" d="M1530.3,346.1l8.8-0.7c0.5,2.4,1.6,4.2,3.2,5.3s3.8,1.7,6.6,1.7c2.9,0,5.1-0.5,6.6-1.5
				c1.5-1,2.2-2.2,2.2-3.5c0-0.9-0.3-1.6-0.9-2.2c-0.6-0.6-1.7-1.1-3.3-1.6c-1.1-0.3-3.5-0.8-7.3-1.6c-4.9-1-8.3-2.2-10.2-3.6
				c-2.8-2-4.1-4.5-4.1-7.3c0-1.9,0.6-3.6,1.9-5.2c1.3-1.6,3.2-2.9,5.6-3.7s5.4-1.3,8.8-1.3c5.6,0,9.9,1,12.7,3s4.3,4.7,4.5,8
				l-9.1,0.3c-0.4-1.9-1.2-3.2-2.5-4c-1.3-0.8-3.2-1.2-5.7-1.2c-2.6,0-4.7,0.4-6.2,1.3c-1,0.6-1.4,1.3-1.4,2.3
				c0,0.9,0.4,1.6,1.3,2.2c1.1,0.8,3.9,1.6,8.3,2.4c4.4,0.8,7.7,1.7,9.8,2.6s3.8,2.1,5,3.7c1.2,1.6,1.8,3.5,1.8,5.8
				c0,2.1-0.7,4.1-2.1,5.9c-1.4,1.8-3.4,3.2-6.1,4.1s-5.9,1.3-9.8,1.3c-5.7,0-10-1.1-13.1-3.2
				C1532.7,353.3,1530.9,350.2,1530.3,346.1z"/>
			<path id="XMLID_32_" class="st0" d="M1584.6,358v-30.3h-13.3v-6.2h35.7v6.2h-13.3V358H1584.6z"/>
			<path id="XMLID_34_" class="st0" d="M1612.7,321.4h9.1v19.8c0,3.1,0.1,5.2,0.3,6.1c0.4,1.5,1.3,2.7,2.8,3.6
				c1.5,0.9,3.5,1.4,6,1.4c2.6,0,4.5-0.4,5.8-1.3s2.1-1.9,2.4-3.2c0.3-1.2,0.4-3.3,0.4-6.2v-20.2h9.1v19.2c0,4.4-0.2,7.5-0.7,9.3
				c-0.5,1.8-1.4,3.3-2.7,4.6c-1.3,1.2-3.1,2.2-5.3,3s-5.1,1.1-8.6,1.1c-4.3,0-7.5-0.4-9.8-1.2c-2.2-0.8-4-1.9-5.3-3.1
				s-2.1-2.6-2.5-4c-0.6-2.1-0.9-5.2-0.9-9.3V321.4z"/>
			<path id="XMLID_36_" class="st0" d="M1658,321.4h16.6c3.7,0,6.6,0.2,8.5,0.7c2.6,0.6,4.9,1.8,6.8,3.4s3.3,3.6,4.3,5.9
				s1.5,5.2,1.5,8.6c0,3-0.5,5.6-1.4,7.8c-1.1,2.7-2.7,4.8-4.8,6.4c-1.6,1.2-3.7,2.2-6.4,2.9c-2,0.5-4.7,0.8-8,0.8H1658V321.4z
				 M1667.1,327.6v24.2h6.8c2.5,0,4.4-0.1,5.5-0.3c1.5-0.3,2.7-0.8,3.7-1.5c1-0.7,1.8-1.9,2.4-3.5s0.9-3.9,0.9-6.7s-0.3-5-0.9-6.5
				c-0.6-1.5-1.5-2.7-2.6-3.5c-1.1-0.8-2.5-1.4-4.2-1.7c-1.3-0.2-3.7-0.3-7.4-0.3H1667.1z"/>
			<path id="XMLID_39_" class="st0" d="M1703,358v-36.5h9.1V358H1703z"/>
			<path id="XMLID_41_" class="st0" d="M1718.9,339.9c0-3.7,0.7-6.8,2.1-9.4c1-1.9,2.4-3.5,4.2-5c1.8-1.5,3.7-2.6,5.8-3.3
				c2.8-1,6-1.4,9.7-1.4c6.6,0,11.9,1.7,15.9,5s6,8,6,13.9c0,5.9-2,10.5-5.9,13.8s-9.2,5-15.8,5c-6.7,0-12-1.7-15.9-5
				C1720.9,350.3,1718.9,345.7,1718.9,339.9z M1728.2,339.7c0,4.1,1.2,7.3,3.5,9.4c2.3,2.1,5.3,3.2,8.9,3.2c3.6,0,6.6-1.1,8.9-3.2
				c2.3-2.1,3.5-5.3,3.5-9.5c0-4.2-1.1-7.3-3.4-9.4s-5.3-3.1-9-3.1c-3.7,0-6.7,1-9,3.1C1729.4,332.3,1728.2,335.5,1728.2,339.7z"/>
			<path id="XMLID_44_" class="st0" d="M1767.2,346.1l8.8-0.7c0.5,2.4,1.6,4.2,3.2,5.3s3.8,1.7,6.6,1.7c2.9,0,5.1-0.5,6.6-1.5
				c1.5-1,2.2-2.2,2.2-3.5c0-0.9-0.3-1.6-0.9-2.2c-0.6-0.6-1.7-1.1-3.3-1.6c-1.1-0.3-3.5-0.8-7.3-1.6c-4.9-1-8.3-2.2-10.2-3.6
				c-2.8-2-4.1-4.5-4.1-7.3c0-1.9,0.6-3.6,1.9-5.2c1.3-1.6,3.2-2.9,5.6-3.7s5.4-1.3,8.8-1.3c5.6,0,9.9,1,12.7,3s4.3,4.7,4.5,8
				l-9.1,0.3c-0.4-1.9-1.2-3.2-2.5-4c-1.3-0.8-3.2-1.2-5.7-1.2c-2.6,0-4.7,0.4-6.2,1.3c-1,0.6-1.4,1.3-1.4,2.3
				c0,0.9,0.4,1.6,1.3,2.2c1.1,0.8,3.9,1.6,8.3,2.4c4.4,0.8,7.7,1.7,9.8,2.6s3.8,2.1,5,3.7c1.2,1.6,1.8,3.5,1.8,5.8
				c0,2.1-0.7,4.1-2.1,5.9c-1.4,1.8-3.4,3.2-6.1,4.1s-5.9,1.3-9.8,1.3c-5.7,0-10-1.1-13.1-3.2
				C1769.6,353.3,1767.8,350.2,1767.2,346.1z"/>
		</g>
	</g>
</g>
<g id="XMLID_4_">
</g>
<g id="XMLID_64_">
</g>
<g id="XMLID_65_">
</g>
<g id="XMLID_66_">
</g>
<g id="XMLID_67_">
</g>
<g id="XMLID_68_">
</g>
<g id="XMLID_69_">
</g>
<g id="XMLID_70_">
</g>
<g id="XMLID_71_">
</g>
<g id="XMLID_72_">
</g>
<g id="XMLID_73_">
</g>
<g id="XMLID_74_">
</g>
<g id="XMLID_75_">
</g>
<g id="XMLID_76_">
</g>
<g id="XMLID_77_">
</g>
</svg>
