<?xml version="1.0" encoding="utf-8"?>
<!-- Generator: Adobe Illustrator 19.0.0, SVG Export Plug-In . SVG Version: 6.00 Build 0)  -->
<svg version="1.1" id="Layer_1" xmlns="http://www.w3.org/2000/svg" xmlns:xlink="http://www.w3.org/1999/xlink" x="0px" y="0px"
	 viewBox="0 0 1000 1000" style="enable-background:new 0 0 1000 1000;" xml:space="preserve">
<style type="text/css">
	.st0{fill:#FFFFFF;}
</style>
<g id="XMLID_2_">
	<path id="XMLID_119_" class="st0" d="M526.9,609.5l170-120c5.1-3.6,11.6,2.3,8.4,7.7L516.5,824.4c-3.1,5.4-11.5,2.8-10.9-3.5
		l18.9-207.2C524.6,612,525.5,610.5,526.9,609.5z"/>
	<path id="XMLID_118_" class="st0" d="M904.3,596.8l-340.1,240c-10.2,7.2-23.1-4.5-16.9-15.4l377.8-654.5
		c6.3-10.9,22.9-5.6,21.8,6.9l-37.8,414.5C908.9,591.7,907.1,594.8,904.3,596.8z"/>
	<path id="XMLID_117_" class="st0" d="M477,612.3l19,208.6c0.6,6.3-7.8,8.9-11,3.5L294.9,495c-3.2-5.5,3.3-11.4,8.5-7.7l171.1,120.8
		C475.9,609,476.8,610.6,477,612.3z"/>
	<path id="XMLID_116_" class="st0" d="M90.8,588.3L53,173.8c-1.1-12.5,15.5-17.8,21.8-6.9l377.8,654.5c6.3,10.9-6.6,22.6-16.9,15.4
		l-340.1-240C92.9,594.8,91.1,591.7,90.8,588.3z"/>
</g>
<g id="XMLID_1_">
</g>
<g id="XMLID_3_">
</g>
<g id="XMLID_4_">
</g>
<g id="XMLID_5_">
</g>
<g id="XMLID_6_">
</g>
<g id="XMLID_7_">
</g>
<g id="XMLID_8_">
</g>
<g id="XMLID_9_">
</g>
<g id="XMLID_10_">
</g>
<g id="XMLID_11_">
</g>
<g id="XMLID_12_">
</g>
<g id="XMLID_13_">
</g>
<g id="XMLID_14_">
</g>
<g id="XMLID_15_">
</g>
<g id="XMLID_16_">
</g>
</svg>
